<?xml version="1.0" encoding="utf-8"?>
<!-- Generator: Adobe Illustrator 22.0.1, SVG Export Plug-In . SVG Version: 6.00 Build 0)  -->
<svg version="1.1" id="Layer_1" xmlns="http://www.w3.org/2000/svg" xmlns:xlink="http://www.w3.org/1999/xlink" x="0px" y="0px"
	 viewBox="0 0 1080 1920" style="enable-background:new 0 0 1080 1920;" xml:space="preserve">
<style type="text/css">
	.st0{fill:#4D7290;}
	.st1{opacity:0.49;}
	.st2{fill:#385568;}
</style>
<rect y="0" class="st0" width="1080" height="1920"/>
<g class="st1">
	<path class="st2" d="M224.8,1648.3c179.2-79.1,200.9-266.6,105.2-483.6C259.2,1004.4,145,883.9,0,896.6v142.8
		c54.6,5.4,111,73.5,166.8,199.9c70.5,159.8,71.2,254.9,7.5,283c-54,23.8-114.5-15.4-174.3-126.3v246.2
		C66.8,1678.2,142.8,1684.5,224.8,1648.3z"/>
	<polygon class="st2" points="806.6,518.7 716,558.7 606.2,702 651.5,804.7 737.2,692.9 954,1184.4 845.1,1232.5 885.2,1323.6 
		1080,1237.6 1080,1128.9 1076.5,1130.4 	"/>
	<path class="st2" d="M1077.9,245.7c-0.7-0.5-1.3-1-2-1.5c-2.9-2.5-5.3-5.6-6.9-9.3l-19.2-43.4c-3.3-7.4-2.8-15.5,0.6-22.2
		c1.8-3.6,4.5-6.8,7.9-9.3H548.2L0,401.8V796l266.2-117.4l210.4,476.9l166.1,376.5L0,1814.5V1920h598.3l481.7-212.5V1339l-335,147.8
		L368.6,633.4L1080,319.6V247C1079.3,246.6,1078.6,246.1,1077.9,245.7z M352.1,1788.3c0,0.7-0.1,1.4-0.2,2.1
		c-1.1,8.8-6.6,16.8-15.3,20.7l-41.4,18.3c-13.1,5.8-28.5-0.2-34.3-13.3l-19.2-43.4c-1.4-3.3-2.2-6.7-2.2-10.1c0-0.9,0-1.9,0.1-2.8
		c0.3-3.2,1.2-6.4,2.7-9.3c0.2-0.5,0.5-1,0.8-1.4c0.4-0.7,0.9-1.4,1.4-2.1c0.3-0.5,0.7-0.9,1.1-1.4c0.8-1,1.8-2,2.8-2.9
		c1.3-1.2,2.7-2.2,4.3-3.1c0.8-0.4,1.6-0.8,2.4-1.2l41.4-18.3c13.1-5.8,28.5,0.2,34.3,13.3l19.2,43.4c1.4,3.3,2.2,6.7,2.2,10.1
		C352.1,1787.4,352.1,1787.8,352.1,1788.3z M658.4,1577.8c0-1.6,0.1-3.2,0.4-4.8c0-0.1,0.1-0.3,0.1-0.4c0.1-0.6,0.3-1.3,0.4-1.9
		c0.3-1.1,0.6-2.1,1.1-3.2c0.2-0.4,0.4-0.8,0.6-1.3c0.2-0.4,0.4-0.8,0.6-1.1c0.2-0.3,0.3-0.6,0.5-0.9c0.7-1.2,1.5-2.4,2.5-3.5
		c0.1-0.1,0.2-0.2,0.2-0.3c2.4-2.8,5.5-5.2,9.2-6.8l43.4-19.2c13.1-5.8,28.5,0.2,34.3,13.3l19.2,43.4c2.6,5.9,2.8,12.2,1.1,18
		c-2.1,7-7.2,13.1-14.4,16.3l-43.4,19.2c-13.1,5.8-28.5-0.2-34.3-13.3l-19.2-43.4C659.1,1584.6,658.4,1581.2,658.4,1577.8
		C658.4,1577.8,658.4,1577.8,658.4,1577.8z M308.6,587.3c-0.1,0.4-0.2,0.8-0.3,1.2c-2,7.2-7.1,13.5-14.5,16.7l-43.4,19.2
		c-3.3,1.4-6.7,2.2-10.1,2.2c-0.4,0-0.9,0-1.3,0c-2-0.1-3.9-0.4-5.8-0.9c-0.2-0.1-0.4-0.1-0.6-0.2c-7.1-2.1-13.2-7.2-16.5-14.4
		l-19.2-43.4c-1.4-3.3-2.2-6.7-2.2-10.1c-0.1-7.6,3.1-14.9,8.8-19.9c1.9-1.7,4.2-3.2,6.7-4.3l43.4-19.2c3.7-1.6,7.6-2.3,11.3-2.2
		c1.7,0.1,3.4,0.3,5,0.7c0.4,0.1,0.8,0.2,1.2,0.3c4.6,1.3,8.8,3.8,12.1,7.4c1.9,2,3.5,4.4,4.7,7.1l19.2,43.4
		C309.4,576.4,309.8,582.1,308.6,587.3z M729.8,399.2c-1.1,8.7-6.7,16.6-15.3,20.4l-43.4,19.2c-1.2,0.5-2.5,1-3.7,1.3
		c-0.4,0.1-0.8,0.2-1.3,0.3c-11.8,2.6-24.2-3.4-29.3-14.9l-19.2-43.4c-1.4-3.3-2.2-6.7-2.2-10.1c0-0.9,0-1.8,0.1-2.8
		c0.1-0.7,0.2-1.4,0.3-2.1c0.4-2.3,1.1-4.6,2.1-6.7c0.2-0.4,0.4-0.7,0.6-1.1c0.7-1.3,1.5-2.5,2.4-3.7c1.5-2,3.4-3.8,5.5-5.3
		c1.4-1,2.9-1.9,4.6-2.6l43.4-19.2c7.6-3.4,15.9-2.8,22.7,0.9c0.3,0.2,0.6,0.3,0.9,0.5c0.8,0.5,1.6,1,2.4,1.6
		c1.1,0.8,2.1,1.7,3.1,2.7c2.1,2.1,3.8,4.7,5,7.5l15.8,35.9l3.3,7.6c0,0.1,0.1,0.1,0.1,0.2c0.3,0.6,0.5,1.3,0.7,1.9
		c0.3,0.9,0.5,1.7,0.7,2.6c0.1,0.5,0.2,1,0.3,1.6C730.1,394.2,730.2,396.7,729.8,399.2z"/>
</g>
</svg>
